<svg width="55" height="61" viewBox="0 0 55 61" fill="none" xmlns="http://www.w3.org/2000/svg">
<path d="M54.0635 25.9737C53.4347 25.1255 52.5119 24.5796 51.4642 24.4325C50.4118 24.2832 49.3734 24.5596 48.5334 25.2025L45.7952 27.3013L45.794 27.3025L41.6428 30.4024L38.6724 29.2194C43.9691 26.8429 47.6711 21.545 47.6711 15.3942C47.6711 7.03135 40.8401 0.227295 32.4436 0.227295C24.047 0.227295 17.2161 7.03135 17.2161 15.3942C17.2161 18.4253 18.1226 21.2439 19.6662 23.6157L13.6204 23.5632C13.6168 23.5632 13.6134 23.5632 13.6099 23.5632C13.5911 23.5632 13.5761 23.5725 13.5586 23.5738C13.4431 23.5784 13.3298 23.6018 13.2191 23.6414C13.1911 23.652 13.162 23.6578 13.1352 23.6705C13.1212 23.6764 13.1071 23.6775 13.0932 23.6845L6.02075 27.1763C6.01952 27.1763 6.01843 27.1763 6.01843 27.1774L1.8766 29.1692C1.83107 29.189 1.78445 29.2158 1.73892 29.2462C0.0880191 30.3451 -0.474314 32.5035 0.429958 34.2675C0.911763 35.2055 1.73195 35.8963 2.73999 36.2124C3.12856 36.3336 3.52518 36.3932 3.91949 36.3932C4.55305 36.3932 5.18074 36.2381 5.75578 35.9313L8.79154 34.3166L13.7441 31.7592L16.7122 31.7417L4.80844 43.5883C4.80735 43.5895 4.80612 43.5895 4.80489 43.5906L1.87647 46.5073C1.18466 47.1957 0.8043 48.1091 0.8043 49.0834C0.8043 50.0564 1.18466 50.9722 1.87647 51.6618C2.587 52.3688 3.52149 52.7235 4.45598 52.7235C5.3917 52.7235 6.32495 52.3688 7.03782 51.6618L9.91251 48.7987L13.7206 45.9555L15.6912 47.9179L11.8375 51.7551C11.8364 51.7563 11.8352 51.7563 11.834 51.7574L8.90556 54.6741C8.21375 55.3624 7.8334 56.2759 7.8334 57.2501C7.8334 58.2232 8.21375 59.1389 8.90556 59.8286C9.6161 60.5356 10.5518 60.8902 11.4863 60.8902C12.4208 60.8902 13.3565 60.5356 14.0681 59.8286L16.9977 56.9119L21.6842 52.2452C21.6854 52.244 21.6854 52.2429 21.6865 52.2417L23.8951 50.0541L23.8869 50.0459C23.9008 50.032 23.9207 50.0272 23.9347 50.0121L35.2353 37.6348L42.8281 38.7152C42.8829 38.7234 42.9377 38.7268 42.9925 38.7268C43.1338 38.7268 43.2702 38.693 43.402 38.6428C43.4406 38.6289 43.4743 38.6102 43.5106 38.5916C43.5526 38.5705 43.5968 38.5589 43.6366 38.5321L50.6659 33.8654C50.6916 33.8479 50.7055 33.8199 50.73 33.8013C50.758 33.7791 50.793 33.7698 50.8186 33.7452L53.5999 31.14C55.0471 29.784 55.2466 27.5627 54.0635 25.9737ZM4.66024 33.8721C4.28111 34.0751 3.85058 34.1159 3.43878 33.9853C3.03039 33.8582 2.69912 33.5793 2.50538 33.2025C2.15305 32.5164 2.35718 31.681 2.97433 31.2296L5.84793 29.8471L6.53974 31.8689L6.83027 32.7182L4.66024 33.8721ZM12.3102 29.874L8.92333 31.624L8.36456 29.9906L7.96328 28.8169L12.3967 26.6281L12.3102 29.874ZM45.3402 15.3918C45.3402 17.4008 44.8607 19.2956 44.03 20.9907L34.8832 16.8361C34.7875 15.582 34.1366 14.4841 33.1589 13.8004L36.3614 3.16843C41.5626 4.82289 45.3402 9.67512 45.3402 15.3918ZM19.5519 15.3918C19.5519 8.31584 25.3363 2.55825 32.446 2.55825C32.9991 2.55825 33.5403 2.60487 34.0759 2.67255L30.9433 13.0713C30.9014 13.07 30.8617 13.0584 30.8185 13.0584C28.5597 13.0584 26.7222 14.8901 26.7222 17.1419C26.7222 19.3935 28.5597 21.2253 30.8185 21.2253C32.3375 21.2253 33.65 20.3865 34.3582 19.159L42.8073 22.9975C40.4564 26.1615 36.6938 28.2254 32.4459 28.2254C25.3363 28.2254 19.5519 22.4678 19.5519 15.3918ZM32.5814 17.1419C32.5814 18.1067 31.7903 18.8919 30.8185 18.8919C29.8467 18.8919 29.0556 18.1067 29.0556 17.1419C29.0556 16.177 29.8467 15.3918 30.8185 15.3918C31.7903 15.3918 32.5814 16.177 32.5814 17.1419ZM5.39183 50.0074C4.87503 50.5195 4.03843 50.5184 3.52286 50.0086C3.2743 49.76 3.13785 49.4323 3.13785 49.0834C3.13785 48.7357 3.2743 48.4079 3.52286 48.1618L5.6274 46.0652L7.48941 47.9191L5.39183 50.0074ZM12.4222 58.1742C11.9054 58.6864 11.0677 58.6876 10.552 58.1755C10.3034 57.9269 10.1669 57.5992 10.1669 57.2503C10.1669 56.9026 10.3034 56.5747 10.552 56.3287L12.6579 54.2309L13.5388 55.1072L14.5211 56.0849L12.4222 58.1742ZM20.0383 50.5861C20.0371 50.5872 20.036 50.5872 20.0348 50.5884L16.1742 54.4385L15.2933 53.5622L14.311 52.5845L18.168 48.745C18.168 48.745 18.168 48.745 18.168 48.7439C18.1692 48.7427 18.1703 48.7427 18.1715 48.7416C18.259 48.6541 18.3139 48.5491 18.3676 48.4453C18.3828 48.415 18.4119 48.3893 18.4248 48.3578C18.461 48.268 18.4667 48.1712 18.4808 48.0766C18.4878 48.0229 18.5112 47.9728 18.5112 47.9179C18.5112 47.8396 18.4831 47.7639 18.4669 47.6868C18.4529 47.6168 18.4529 47.5456 18.426 47.478C18.3817 47.3684 18.3058 47.2716 18.2265 47.177C18.2044 47.1513 18.1962 47.1186 18.1717 47.0941C18.1717 47.0941 18.1717 47.0941 18.1705 47.0941C18.1692 47.093 18.1692 47.0906 18.1681 47.0895L14.6529 43.5894C14.6156 43.5521 14.5677 43.5369 14.5257 43.5055C14.464 43.4576 14.4045 43.4133 14.3356 43.3794C14.2691 43.3467 14.2014 43.3269 14.1314 43.3082C14.0568 43.2871 13.9845 43.2709 13.9063 43.265C13.835 43.2603 13.7686 43.2673 13.6975 43.2755C13.6193 43.2848 13.5459 43.2953 13.47 43.3198C13.3964 43.3432 13.3312 43.3793 13.2635 43.4178C13.2203 43.4423 13.1714 43.4505 13.1305 43.4809L9.25133 46.3766L7.28077 44.4142L12.5285 39.1945L22.0674 48.5759L20.0383 50.5861ZM34.9544 35.2371C34.9207 35.2325 34.8891 35.2453 34.8553 35.243C34.7701 35.2384 34.6885 35.2442 34.6034 35.2582C34.5369 35.2698 34.4739 35.2827 34.4108 35.3048C34.3362 35.3305 34.2685 35.3655 34.1996 35.4075C34.1343 35.4471 34.0748 35.4891 34.0176 35.5416C33.9896 35.5661 33.9558 35.5778 33.9301 35.6057L23.6527 46.862L14.185 37.5506L20.3825 31.3858C20.8387 30.9308 20.841 30.1923 20.386 29.7349C20.1562 29.5051 19.854 29.3919 19.5519 29.3931V29.392L14.6984 29.4212L14.7591 25.9048L21.5492 25.9632C24.3166 28.7936 28.176 30.5588 32.446 30.5588C33.4027 30.5588 34.3361 30.4597 35.2448 30.2904C35.3323 30.3604 35.4186 30.4317 35.5284 30.476L40.7995 32.576L41.1331 34.235L41.5228 36.1716L34.9544 35.2371ZM43.7944 35.6268L43.1096 32.2189L46.2736 29.8563L47.102 30.9553L48.3445 32.605L43.7944 35.6268ZM52.0055 29.434L50.1726 31.1514L48.1356 28.447L49.9544 27.0529C50.2938 26.7916 50.7221 26.6854 51.1421 26.7402C51.5644 26.7997 51.9378 27.0202 52.1921 27.362C52.6658 28.0002 52.5853 28.8904 52.0055 29.434Z" fill="#212121"/>
</svg>
